# xmcd CD database file
#
# Track frame offsets:
#	150
#	19465
#	40217
#	71190
#	93912
#	114385
#	135595
#	155552
#	177000
#	189947
#	213507
#	236387
#	254367
#	280805
#	302995
#
# Disc length: 4351 seconds
#
# Revision: 3
# Processed by: cddbd v1.5.2PL0 Copyright (c) Steve Scherf et al.
# Submitted via: CDex 1.70beta2
#
DISCID=d110fd0f
DTITLE=Various Artist - KKSF Sampler For Aids Relief 5
DYEAR=1994
DGENRE=Jazz
TTITLE0=Dave Koz - You Make Me Smile
TTITLE1=Keiko Matsui - Movie
TTITLE2=Craig Chaquico - Sarcred Ground
TTITLE3=David Benoit - Still Standing
TTITLE4=Double - The Captain of Her Heart
TTITLE5=Dana Dragomir - Into the Light
TTITLE6=Carlos Santana - Bella
TTITLE7=Bobby Caldwell - What You Won't Do For Love
TTITLE8=The Soto Koto Band - Rainbeat
TTITLE9=Kenny G - Natural Ride
TTITLE10=Chris Rea - On the Beach
TTITLE11=Tommy Emannanuel - En Aranuez Con Tu Amor
TTITLE12=Ronny Jordan - After Hours
TTITLE13=Karla Bonoff - New World
TTITLE14=Jim Chappell - Gone
EXTD=YEAR: 1994
EXTT0=
EXTT1=
EXTT2=
EXTT3=
EXTT4=
EXTT5=
EXTT6=
EXTT7=
EXTT8=
EXTT9=
EXTT10=
EXTT11=
EXTT12=
EXTT13=
EXTT14=
PLAYORDER=
